<?xml version="1.0" standalone="no"?>
<!DOCTYPE svg PUBLIC "-//W3C//DTD SVG 20010904//EN"
 "http://www.w3.org/TR/2001/REC-SVG-20010904/DTD/svg10.dtd">
<svg version="1.0" xmlns="http://www.w3.org/2000/svg"
 width="1472.000000pt" height="832.000000pt" viewBox="0 0 1472.000000 832.000000"
 preserveAspectRatio="xMidYMid meet">

<g transform="translate(0.000000,832.000000) scale(0.100000,-0.100000)"
fill="#000000" stroke="none">
<path d="M4126 4909 c-338 -44 -616 -219 -737 -464 -121 -246 -71 -497 142
-718 73 -76 94 -104 116 -162 38 -96 36 -199 -5 -340 -29 -99 -29 -125 3 -125
13 0 152 83 337 202 112 72 119 76 203 86 122 16 480 97 561 128 263 98 459
278 531 487 24 70 28 98 28 187 0 122 -13 175 -67 281 -145 285 -500 453 -943
448 -55 -1 -131 -6 -169 -10z m425 -227 c79 -38 199 -130 199 -153 0 -5 -19
-21 -42 -35 -24 -15 -76 -49 -116 -76 l-72 -49 -29 21 c-94 67 -201 79 -296
34 -142 -68 -200 -230 -130 -368 52 -103 134 -155 246 -156 87 0 156 35 216
108 59 72 77 148 61 256 -2 14 24 37 106 93 61 40 116 71 122 69 33 -13 59
-197 44 -308 -30 -217 -167 -391 -370 -470 -69 -26 -210 -35 -289 -18 -214 47
-380 218 -427 442 -13 60 -14 88 -5 161 15 112 39 177 100 263 54 77 107 125
195 175 90 50 134 59 276 56 124 -3 126 -3 211 -45z"/>
<path d="M7775 4623 c-67 -35 -104 -96 -105 -170 l0 -43 -51 0 -50 0 3 -47 3
-48 48 -3 47 -3 0 -235 0 -234 51 0 51 0 -7 235 -7 235 86 0 c93 0 90 -2 101
63 l6 37 -96 0 c-106 0 -105 -1 -85 72 20 72 66 92 132 59 l43 -21 30 30 c24
24 28 34 19 47 -25 40 -162 57 -219 26z"/>
<path d="M5869 4410 c-112 -19 -200 -108 -228 -229 -11 -50 1 -147 25 -193 24
-47 84 -108 128 -130 57 -29 177 -36 243 -14 48 16 133 78 133 96 0 18 -50 59
-65 54 -8 -4 -15 -9 -15 -13 0 -5 -23 -20 -51 -35 -44 -25 -59 -28 -119 -24
-58 3 -75 8 -107 34 -50 39 -83 105 -83 164 0 59 33 125 83 164 32 26 49 31
106 34 73 4 110 -8 145 -47 26 -29 40 -26 71 11 l27 32 -33 29 c-68 58 -164
83 -260 67z"/>
<path d="M7177 4410 c-50 -9 -75 -22 -115 -60 l-24 -22 6 36 c5 32 3 36 -18
42 -14 3 -34 3 -45 -1 -21 -6 -21 -12 -21 -286 l0 -279 44 0 44 0 4 178 c3
173 4 178 31 224 15 27 41 55 57 63 42 22 126 19 165 -5 53 -33 60 -63 60
-270 l0 -185 48 -3 49 -3 -4 208 c-3 201 -4 210 -29 258 -43 85 -137 124 -252
105z"/>
<path d="M9903 4410 c-59 -9 -132 -41 -158 -70 -17 -18 -16 -20 20 -54 l37
-35 30 22 c23 17 47 23 109 26 79 3 79 3 114 -32 20 -20 35 -45 35 -58 0 -24
-1 -24 -107 -24 -90 0 -116 -4 -155 -22 -126 -58 -141 -239 -26 -308 66 -38
205 -36 261 6 l28 21 6 -21 c5 -18 13 -21 58 -21 l52 0 6 178 c6 196 -2 259
-36 309 -43 65 -159 100 -274 83z m156 -326 c26 -6 31 -11 31 -36 0 -41 -25
-85 -60 -103 -16 -8 -54 -15 -85 -15 -46 0 -60 4 -80 25 -41 40 -32 99 19 121
33 14 123 18 175 8z"/>
<path d="M6420 4398 c-53 -18 -143 -113 -163 -172 -48 -140 7 -297 126 -362
76 -41 184 -46 258 -12 183 85 236 316 106 464 -59 67 -105 87 -207 90 -47 2
-101 -2 -120 -8z m187 -89 c91 -34 141 -170 99 -270 -17 -41 -71 -94 -109
-108 -39 -15 -111 -14 -150 3 -63 27 -117 113 -117 185 0 71 42 144 105 182
34 21 126 26 172 8z"/>
<path d="M8149 4382 c-122 -64 -177 -213 -133 -363 21 -72 107 -159 177 -178
60 -17 171 -10 217 14 41 21 100 67 100 78 0 4 -15 20 -32 36 l-33 30 -30 -29
c-16 -16 -43 -34 -60 -40 -43 -16 -118 -14 -153 4 -56 29 -128 140 -98 152 7
3 108 3 225 2 l213 -3 -4 70 c-11 161 -109 255 -267 255 -56 0 -79 -5 -122
-28z m175 -61 c21 -5 52 -22 68 -38 27 -25 58 -82 58 -104 0 -5 -79 -9 -175
-9 -191 0 -189 -1 -160 58 20 39 68 80 103 88 15 3 32 7 37 9 17 6 28 5 69 -4z"/>
<path d="M8904 4400 c-38 -8 -104 -48 -104 -61 0 -5 -5 -9 -10 -9 -7 0 -8 13
-4 35 l6 35 -61 0 -61 0 0 -280 0 -280 60 0 60 0 0 160 c0 185 11 226 67 261
28 18 44 21 88 16 l53 -5 4 61 c2 35 -1 65 -7 69 -12 9 -49 9 -91 -2z"/>
<path d="M9243 4393 c-60 -21 -135 -105 -158 -178 -23 -73 -17 -183 13 -240
50 -97 140 -147 267 -147 68 -1 91 4 136 25 30 14 65 35 79 46 24 19 24 19 5
41 -11 12 -32 31 -46 41 -26 18 -26 18 -68 -12 -35 -26 -51 -31 -99 -32 -34 0
-70 6 -89 16 -34 18 -77 68 -88 105 l-6 22 220 0 221 0 0 46 c0 114 -65 224
-155 265 -50 23 -171 24 -232 2z m207 -118 c12 -11 29 -33 37 -48 27 -53 18
-57 -142 -57 l-146 0 6 23 c12 37 34 67 68 88 42 27 145 23 177 -6z"/>
<path d="M10465 4396 c-102 -38 -147 -170 -84 -250 29 -37 82 -62 174 -81 122
-25 149 -53 106 -106 -17 -21 -28 -24 -88 -24 -61 0 -76 4 -123 33 l-52 33
-34 -38 c-18 -21 -33 -42 -34 -48 0 -13 53 -49 105 -71 28 -12 67 -17 126 -17
75 0 92 3 137 28 109 59 132 172 54 257 -28 31 -85 52 -185 69 -53 9 -71 16
-83 35 -49 74 86 114 198 58 28 -14 54 -22 57 -17 61 91 62 84 -14 125 -52 28
-200 36 -260 14z"/>
<path d="M11056 4395 c-54 -19 -105 -63 -140 -120 -26 -42 -31 -61 -34 -136
-5 -98 5 -138 49 -199 92 -127 283 -155 424 -62 30 20 55 39 55 42 0 3 -18 23
-40 45 -36 36 -41 37 -57 23 -37 -32 -89 -51 -144 -52 -46 -1 -62 4 -93 27
-30 23 -76 91 -76 112 0 3 97 5 216 5 l217 0 -5 68 c-12 166 -113 263 -272
262 -34 -1 -78 -7 -100 -15z m183 -109 c30 -16 54 -48 63 -83 6 -22 4 -23 -60
-23 -37 0 -104 -3 -149 -7 -75 -5 -83 -4 -83 12 0 27 39 84 68 100 35 19 125
19 161 1z"/>
</g>
</svg>
